<svg width="841" height="462" viewBox="0 0 841 462" fill="none" xmlns="http://www.w3.org/2000/svg">
<path d="M220.301 434.26C220.301 429.46 221.601 425.56 224.201 422.56C226.801 419.56 230.301 418.06 234.901 418.06C239.101 418.06 242.301 419.16 244.401 421.46C245.414 422.449 246.22 423.631 246.769 424.936C247.319 426.241 247.602 427.643 247.601 429.06V429.26H243.101V429.06C243.106 427.197 242.389 425.405 241.101 424.06C239.767 422.66 237.667 421.96 234.801 421.96C231.501 421.96 229.001 423.16 227.401 425.46C225.732 428.084 224.896 431.151 225.001 434.26V435.26C224.896 438.368 225.732 441.435 227.401 444.06C229.001 446.46 231.501 447.56 234.801 447.56C237.701 447.56 239.801 446.86 241.101 445.46C242.389 444.114 243.106 442.322 243.101 440.46V440.26H247.601V440.46C247.576 443.315 246.426 446.046 244.401 448.06C242.201 450.36 239.101 451.46 234.901 451.46C230.401 451.46 226.801 449.96 224.201 446.96C221.601 443.96 220.301 440.06 220.301 435.26V434.26Z" fill="#37302D"/>
<path d="M252.301 434.26C252.301 429.46 253.601 425.56 256.301 422.56C257.715 421.134 259.397 420.002 261.251 419.23C263.104 418.457 265.093 418.06 267.101 418.06C269.109 418.06 271.097 418.457 272.951 419.23C274.804 420.002 276.487 421.134 277.901 422.56C280.601 425.56 281.901 429.46 281.901 434.26V435.26C281.901 440.06 280.601 443.96 277.901 446.96C276.487 448.385 274.804 449.517 272.951 450.29C271.097 451.062 269.109 451.46 267.101 451.46C265.093 451.46 263.104 451.062 261.251 450.29C259.397 449.517 257.715 448.385 256.301 446.96C253.601 443.96 252.301 440.06 252.301 435.26V434.26ZM257.001 435.26C256.88 438.384 257.755 441.466 259.501 444.06C261.201 446.46 263.701 447.56 267.101 447.56C268.542 447.639 269.981 447.361 271.29 446.75C272.598 446.139 273.735 445.215 274.601 444.06C276.379 441.476 277.289 438.394 277.201 435.26V434.26C277.289 431.125 276.379 428.043 274.601 425.46C272.901 423.06 270.401 421.96 267.101 421.96C265.645 421.884 264.193 422.163 262.869 422.773C261.545 423.382 260.39 424.304 259.501 425.46C257.755 428.054 256.88 431.135 257.001 434.26V435.26Z" fill="#37302D"/>
<path d="M285.301 419H302.901V422.7H285.301V419ZM290.901 414.8C290.901 411.2 291.801 408.5 293.701 406.7C294.709 405.738 295.903 404.994 297.211 404.512C298.518 404.03 299.91 403.822 301.301 403.9C301.969 403.883 302.638 403.916 303.301 404C303.945 404.075 304.581 404.209 305.201 404.4L304.901 408.2C304.411 408.07 303.907 408.003 303.401 408C302.838 407.913 302.269 407.88 301.701 407.9C300.859 407.855 300.016 407.982 299.225 408.275C298.434 408.567 297.711 409.018 297.101 409.6C295.924 411.065 295.351 412.926 295.501 414.8V450.6H290.801L290.901 414.8ZM303.501 419H321.101V422.7H303.501V419ZM309.101 414.8C309.101 411.2 310.001 408.5 311.901 406.7C312.909 405.738 314.103 404.994 315.411 404.512C316.718 404.03 318.11 403.822 319.501 403.9C320.169 403.883 320.838 403.916 321.501 404C322.145 404.075 322.781 404.209 323.401 404.4L323.101 408.2C322.611 408.07 322.107 408.003 321.601 408C321.038 407.913 320.469 407.88 319.901 407.9C319.059 407.855 318.216 407.982 317.425 408.275C316.634 408.567 315.911 409.018 315.301 409.6C314.124 411.065 313.551 412.926 313.701 414.8V450.6H309.001L309.101 414.8Z" fill="#37302D"/>
<path d="M323.5 434.26C323.5 429.46 324.8 425.56 327.4 422.56C328.667 421.083 330.251 419.911 332.035 419.131C333.819 418.352 335.755 417.986 337.7 418.06C342 418.06 345.3 419.46 347.6 422.26C349.9 425.06 351.1 428.86 351.1 433.76V435.76H326.3V431.86H346.4V431.46C346.534 428.985 345.79 426.541 344.3 424.56C342.9 422.86 340.8 421.96 337.9 421.96C336.501 421.883 335.106 422.163 333.846 422.776C332.586 423.388 331.503 424.312 330.7 425.46C329.031 428.085 328.195 431.152 328.3 434.26V435.26C328.179 438.384 329.054 441.466 330.8 444.06C332.5 446.46 335.1 447.56 338.7 447.56C340.585 447.63 342.453 447.18 344.1 446.26C345.501 445.446 346.753 444.397 347.8 443.16L350.8 445.66C349.573 447.31 348.004 448.674 346.2 449.66C343.902 450.909 341.315 451.53 338.7 451.46C333.8 451.46 330.1 449.96 327.4 446.96C324.7 443.96 323.5 440.06 323.5 435.26V434.26Z" fill="#37302D"/>
<path d="M355.699 434.26C355.699 429.46 356.999 425.56 359.599 422.56C360.866 421.083 362.451 419.911 364.234 419.131C366.018 418.352 367.954 417.986 369.899 418.06C374.199 418.06 377.499 419.46 379.799 422.26C382.099 425.06 383.299 428.86 383.299 433.76V435.76H358.499V431.86H378.599V431.46C378.733 428.985 377.99 426.541 376.499 424.56C375.099 422.86 372.999 421.96 370.099 421.96C368.7 421.883 367.305 422.163 366.045 422.776C364.785 423.388 363.702 424.312 362.899 425.46C361.231 428.085 360.394 431.152 360.499 434.26V435.26C360.378 438.384 361.254 441.466 362.999 444.06C364.699 446.46 367.299 447.56 370.899 447.56C372.784 447.63 374.652 447.18 376.299 446.26C377.701 445.446 378.952 444.397 379.999 443.16L382.999 445.66C381.772 447.31 380.203 448.674 378.399 449.66C376.101 450.909 373.514 451.53 370.899 451.46C365.999 451.46 362.299 449.96 359.599 446.96C356.899 443.96 355.699 440.06 355.699 435.26V434.26Z" fill="#37302D"/>
<path d="M405 419H409.2L409.4 423.3H409.5C410.391 421.892 411.545 420.67 412.9 419.7C414.397 418.67 416.184 418.144 418 418.2C418.508 418.174 419.017 418.242 419.5 418.4C419.876 418.46 420.245 418.561 420.6 418.7V423.1C420.2 423 419.7 423 419.3 422.9C418.9 422.8 418.3 422.8 417.8 422.8C416.015 422.745 414.26 423.271 412.8 424.3C411.452 425.273 410.383 426.584 409.7 428.1V450.8H405V419Z" fill="#37302D"/>
<path d="M424.1 434.26C424.1 429.46 425.4 425.56 428.1 422.56C429.514 421.134 431.196 420.002 433.05 419.23C434.903 418.457 436.892 418.06 438.9 418.06C440.908 418.06 442.896 418.457 444.75 419.23C446.603 420.002 448.286 421.134 449.7 422.56C452.4 425.56 453.7 429.46 453.7 434.26V435.26C453.7 440.06 452.4 443.96 449.7 446.96C448.286 448.385 446.603 449.517 444.75 450.29C442.896 451.062 440.908 451.46 438.9 451.46C436.892 451.46 434.903 451.062 433.05 450.29C431.196 449.517 429.514 448.385 428.1 446.96C425.4 443.96 424.1 440.06 424.1 435.26V434.26ZM428.9 435.26C428.779 438.384 429.654 441.466 431.4 444.06C433.1 446.46 435.6 447.56 439 447.56C440.441 447.639 441.88 447.361 443.188 446.75C444.497 446.139 445.634 445.215 446.5 444.06C448.277 441.476 449.188 438.394 449.1 435.26V434.26C449.188 431.125 448.277 428.043 446.5 425.46C444.8 423.06 442.3 421.96 439 421.96C437.544 421.884 436.092 422.163 434.768 422.773C433.444 423.382 432.288 424.304 431.4 425.46C429.654 428.054 428.779 431.135 428.9 434.26V435.26Z" fill="#37302D"/>
<path d="M463 434.06C465.5 432.26 468.8 431.46 472.7 431.46H480.5V429C480.602 427.163 480.034 425.351 478.9 423.9C477.8 422.6 476 421.9 473.3 421.9C470.6 421.9 468.7 422.4 467.6 423.5C467.048 423.985 466.609 424.586 466.315 425.261C466.021 425.935 465.88 426.665 465.9 427.4V427.6H461.3V427.4C461.3 426.119 461.597 424.856 462.17 423.71C462.743 422.565 463.575 421.568 464.6 420.8C467.149 418.857 470.298 417.866 473.5 418C477.2 418 480.1 418.9 482.2 420.7C484.3 422.5 485.3 425.2 485.3 428.8V443.2C485.297 444.44 485.397 445.678 485.6 446.9C485.766 447.968 486.069 449.01 486.5 450V450.5H482C481.64 449.875 481.37 449.202 481.2 448.5C480.986 447.677 480.819 446.843 480.7 446C479.742 447.489 478.438 448.724 476.9 449.6C474.828 450.759 472.472 451.314 470.1 451.2C467.32 451.295 464.595 450.41 462.4 448.7C460.3 447.1 459.3 444.6 459.3 441.4C459.185 439.955 459.47 438.506 460.122 437.212C460.775 435.918 461.77 434.827 463 434.06ZM465.6 445.76C466.8 446.86 468.6 447.36 471.1 447.36C473.486 447.372 475.795 446.52 477.6 444.96C479.5 443.36 480.5 441.66 480.5 439.86V434.86H473.4C470.3 434.86 468 435.46 466.4 436.56C465.632 437.073 465.007 437.774 464.587 438.597C464.167 439.42 463.965 440.337 464 441.26C463.871 442.084 463.949 442.928 464.228 443.714C464.508 444.5 464.979 445.203 465.6 445.76Z" fill="#37302D"/>
<path d="M496.6 441.26V441.46C496.528 442.353 496.693 443.249 497.08 444.057C497.466 444.865 498.06 445.556 498.8 446.06C500.577 447.13 502.629 447.652 504.7 447.56C506.741 447.665 508.766 447.141 510.5 446.06C511.151 445.64 511.685 445.062 512.052 444.38C512.419 443.699 512.608 442.935 512.6 442.16C512.637 441.467 512.501 440.774 512.204 440.146C511.907 439.518 511.459 438.973 510.9 438.56C509.8 437.76 507.5 436.96 504 436.16C501.085 435.63 498.321 434.469 495.9 432.76C494.967 432.07 494.216 431.163 493.711 430.118C493.206 429.073 492.962 427.921 493 426.76C492.994 425.532 493.282 424.319 493.838 423.223C494.395 422.128 495.204 421.181 496.2 420.46C498.683 418.719 501.67 417.841 504.7 417.96C507.779 417.825 510.812 418.742 513.3 420.56C514.352 421.365 515.194 422.414 515.751 423.616C516.308 424.818 516.565 426.137 516.5 427.46V427.56H511.8V427.36C511.832 426.6 511.685 425.842 511.373 425.148C511.06 424.453 510.59 423.841 510 423.36C508.429 422.248 506.52 421.718 504.6 421.86C502.2 421.86 500.4 422.26 499.3 423.16C498.769 423.536 498.338 424.035 498.044 424.614C497.749 425.194 497.601 425.837 497.61 426.487C497.62 427.137 497.788 427.775 498.1 428.345C498.412 428.916 498.858 429.401 499.4 429.76C500.6 430.56 502.9 431.36 506.4 432.16C509.315 432.691 512.08 433.851 514.5 435.56C515.443 436.305 516.19 437.268 516.678 438.365C517.165 439.462 517.379 440.662 517.3 441.86C517.341 443.17 517.083 444.472 516.545 445.668C516.008 446.863 515.206 447.921 514.2 448.76C512.1 450.56 509 451.46 504.8 451.46C500.6 451.46 497.5 450.56 495.3 448.66C494.224 447.781 493.366 446.664 492.793 445.398C492.221 444.131 491.949 442.749 492 441.36V441.16H496.6V441.26Z" fill="#37302D"/>
<path d="M519.6 419H537.8V422.7H519.6V419ZM525.7 421.2V411.1H530.4V442.7C530.279 443.967 530.597 445.238 531.3 446.3C531.674 446.682 532.128 446.979 532.628 447.169C533.129 447.359 533.665 447.438 534.2 447.4C534.771 447.382 535.34 447.316 535.9 447.2C536.479 447.079 537.047 446.912 537.6 446.7V450.6C536.946 450.841 536.278 451.042 535.6 451.2C534.748 451.404 533.875 451.504 533 451.5C532.004 451.536 531.011 451.369 530.083 451.008C529.154 450.646 528.309 450.099 527.6 449.4C526.3 448 525.6 445.8 525.6 442.8L525.7 421.2Z" fill="#37302D"/>
<path d="M541.9 434.26C541.9 429.46 543.2 425.56 545.8 422.56C547.067 421.083 548.652 419.911 550.435 419.131C552.219 418.352 554.155 417.986 556.1 418.06C560.4 418.06 563.7 419.46 566 422.26C568.3 425.06 569.5 428.86 569.5 433.76V435.76H544.7V431.86H564.8V431.46C564.934 428.985 564.191 426.541 562.7 424.56C561.3 422.86 559.2 421.96 556.3 421.96C554.902 421.883 553.506 422.163 552.246 422.776C550.986 423.388 549.903 424.312 549.1 425.46C547.432 428.085 546.595 431.152 546.7 434.26V435.26C546.579 438.384 547.455 441.466 549.2 444.06C550.9 446.46 553.5 447.56 557.1 447.56C558.985 447.63 560.854 447.18 562.5 446.26C563.902 445.446 565.153 444.397 566.2 443.16L569.2 445.66C567.974 447.31 566.404 448.674 564.6 449.66C562.302 450.909 559.715 451.53 557.1 451.46C552.2 451.46 548.5 449.96 545.8 446.96C543.1 443.96 541.9 440.06 541.9 435.26V434.26Z" fill="#37302D"/>
<path d="M576.199 419H580.399L580.599 423.3H580.699C581.59 421.892 582.745 420.67 584.099 419.7C585.596 418.67 587.383 418.144 589.199 418.2C589.707 418.174 590.216 418.242 590.699 418.4C591.076 418.46 591.444 418.561 591.799 418.7V423.1C591.399 423 590.899 423 590.499 422.9C590.099 422.8 589.499 422.8 588.999 422.8C587.214 422.745 585.459 423.271 583.999 424.3C582.651 425.273 581.582 426.584 580.899 428.1V450.8H576.199V419Z" fill="#37302D"/>
<path d="M599.799 441.26V441.46C599.727 442.353 599.893 443.249 600.279 444.057C600.666 444.865 601.259 445.556 601.999 446.06C603.776 447.13 605.828 447.652 607.899 447.56C609.941 447.665 611.965 447.141 613.699 446.06C614.35 445.64 614.884 445.062 615.251 444.38C615.618 443.699 615.807 442.935 615.799 442.16C615.836 441.467 615.7 440.774 615.403 440.146C615.106 439.518 614.658 438.973 614.099 438.56C612.999 437.76 610.699 436.96 607.199 436.16C604.284 435.63 601.52 434.469 599.099 432.76C598.166 432.07 597.415 431.163 596.91 430.118C596.405 429.073 596.161 427.921 596.199 426.76C596.194 425.532 596.481 424.319 597.037 423.223C597.594 422.128 598.404 421.181 599.399 420.46C601.883 418.719 604.869 417.841 607.899 417.96C610.978 417.825 614.011 418.742 616.499 420.56C617.552 421.365 618.393 422.414 618.95 423.616C619.508 424.818 619.765 426.137 619.699 427.46V427.56H614.999V427.36C615.031 426.6 614.884 425.842 614.572 425.148C614.26 424.453 613.79 423.841 613.199 423.36C611.629 422.248 609.719 421.718 607.799 421.86C605.399 421.86 603.599 422.26 602.499 423.16C601.969 423.536 601.537 424.035 601.243 424.614C600.948 425.194 600.8 425.837 600.81 426.487C600.819 427.137 600.988 427.775 601.299 428.345C601.611 428.916 602.057 429.401 602.599 429.76C603.799 430.56 606.099 431.36 609.599 432.16C612.515 432.691 615.279 433.851 617.699 435.56C618.642 436.305 619.389 437.268 619.877 438.365C620.364 439.462 620.578 440.662 620.499 441.86C620.54 443.17 620.282 444.472 619.745 445.668C619.208 446.863 618.406 447.921 617.399 448.76C615.299 450.56 612.199 451.46 607.999 451.46C603.799 451.46 600.699 450.56 598.499 448.66C597.423 447.781 596.565 446.664 595.992 445.398C595.42 444.131 595.148 442.749 595.199 441.36V441.16H599.799V441.26Z" fill="#37302D"/>
<path d="M8.19922 337.06V244.76H28.6992V275.36H31.5992V337.06H8.19922ZM63.8992 337.06V282.56C63.8992 276.46 62.4992 271.76 59.5992 268.36C56.6992 264.96 52.6992 263.26 47.6992 263.26C45.5028 263.193 43.3183 263.606 41.2977 264.469C39.2771 265.333 37.4689 266.626 35.9992 268.26C33.0992 271.56 31.5992 275.86 31.5992 281.16L21.8992 274.36C21.8069 268.639 23.3696 263.014 26.3992 258.16C29.4087 253.366 33.6129 249.438 38.5992 246.76C43.8472 243.923 49.7341 242.477 55.6992 242.56C62.8992 242.56 68.8992 244.06 73.4992 247.16C78.0588 250.168 81.6391 254.443 83.7992 259.46C86.0419 264.809 87.165 270.56 87.0992 276.36V337.06H63.8992ZM119.399 337.06V282.56C119.399 276.46 117.999 271.76 115.099 268.36C112.199 264.96 108.199 263.26 103.199 263.26C100.206 263.211 97.2593 264.008 94.6992 265.56C92.2662 267.079 90.322 269.266 89.0992 271.86C87.7262 274.8 87.0421 278.015 87.0992 281.26L77.3992 274.76C77.27 269.006 78.7451 263.33 81.6592 258.367C84.5734 253.404 88.8116 249.351 93.8992 246.66C99.0652 243.902 104.843 242.492 110.699 242.56C121.199 242.56 129.199 245.66 134.599 251.96C139.999 258.26 142.699 266.36 142.699 276.46V337.16H119.399V337.06Z" fill="#37302D"/>
<path d="M196.2 339.66C187.656 339.834 179.225 337.692 171.8 333.46C164.852 329.349 159.176 323.396 155.4 316.26C151.357 308.45 149.329 299.753 149.5 290.96C149.5 281.36 151.5 272.86 155.5 265.56C159.319 258.448 165.029 252.53 172 248.46C179.362 244.253 187.723 242.111 196.2 242.26C204.774 242.101 213.234 244.242 220.7 248.46C227.655 252.596 233.357 258.54 237.2 265.66C241.082 273.529 243.101 282.186 243.101 290.96C243.101 299.735 241.082 308.391 237.2 316.26C233.357 323.38 227.655 329.325 220.7 333.46C213.225 337.657 204.771 339.796 196.2 339.66ZM196.2 317.96C203.7 317.96 209.2 315.46 212.9 310.36C216.6 305.26 218.4 298.86 218.4 290.96C218.4 282.76 216.5 276.16 212.8 271.26C209.1 266.36 203.5 263.86 196.2 263.86C191.1 263.86 187 264.96 183.7 267.26C180.383 269.614 177.87 272.93 176.5 276.76C174.847 281.272 174.066 286.057 174.2 290.86C174.2 299.16 176.1 305.66 179.8 310.56C183.5 315.46 188.9 318 196.2 318V317.96Z" fill="#37302D"/>
<path d="M253.1 337.06V244.76H273.8V275.36H276.7V337.06H253.1ZM316.2 337.06V293.46C316.2 291.36 316.1 288.66 315.9 285.36C315.682 281.976 314.975 278.641 313.8 275.46C312.664 272.188 310.617 269.308 307.9 267.16C305.2 264.96 301.4 263.86 296.4 263.86C294.237 263.885 292.086 264.188 290 264.76C287.605 265.422 285.408 266.658 283.6 268.36C281.352 270.559 279.671 273.27 278.7 276.26C277.4 279.76 276.8 284.36 276.8 290.06L263.5 283.76C263.47 276.69 264.971 269.696 267.9 263.26C270.826 256.94 275.469 251.57 281.3 247.76C287.3 243.86 294.8 241.86 303.8 241.86C311 241.86 316.9 243.06 321.5 245.56C325.736 247.753 329.374 250.945 332.1 254.86C334.524 258.477 336.347 262.462 337.5 266.66C338.493 270.328 339.162 274.076 339.5 277.86C339.7 281.26 339.8 283.66 339.8 285.26V337.06H316.2Z" fill="#37302D"/>
<path d="M393.3 339.66C384.756 339.834 376.324 337.692 368.9 333.46C361.952 329.349 356.276 323.396 352.5 316.26C348.457 308.45 346.429 299.753 346.6 290.96C346.6 281.36 348.6 272.86 352.6 265.56C356.418 258.448 362.129 252.53 369.1 248.46C376.461 244.253 384.822 242.111 393.3 242.26C401.874 242.101 410.334 244.242 417.8 248.46C424.754 252.596 430.457 258.54 434.3 265.66C438.181 273.529 440.2 282.186 440.2 290.96C440.2 299.735 438.181 308.391 434.3 316.26C430.457 323.38 424.754 329.325 417.8 333.46C410.325 337.657 401.871 339.796 393.3 339.66ZM393.3 317.96C400.8 317.96 406.3 315.46 410 310.36C413.7 305.26 415.5 298.86 415.5 290.96C415.5 282.76 413.6 276.16 409.9 271.26C406.2 266.36 400.6 263.86 393.3 263.86C388.2 263.86 384.1 264.96 380.8 267.26C377.483 269.614 374.969 272.93 373.6 276.76C371.947 281.272 371.166 286.057 371.3 290.86C371.3 299.16 373.2 305.66 376.9 310.56C380.6 315.46 386 318 393.3 318V317.96Z" fill="#37302D"/>
<path d="M463.499 335.66C461.591 334.306 460.045 332.503 458.999 330.411C457.952 328.318 457.437 325.999 457.499 323.66C457.547 322.414 457.714 321.175 457.999 319.96L481.999 193.96C482.254 192.673 482.421 191.37 482.499 190.06C482.499 186.06 480.699 184.16 477.299 184.16C474.399 184.16 470.499 185.36 465.699 187.86H465.199C464.599 187.86 464.199 187.46 464.099 186.76C464.036 186.624 464.004 186.475 464.006 186.324C464.008 186.174 464.044 186.026 464.112 185.891C464.179 185.757 464.276 185.639 464.395 185.547C464.514 185.455 464.652 185.391 464.799 185.36L492.599 171.66H493.099C493.4 171.657 493.698 171.718 493.974 171.839C494.25 171.959 494.497 172.137 494.699 172.36C495.199 172.86 495.299 173.16 495.199 173.46L469.199 315.26C469.019 316.249 468.952 317.256 468.999 318.26C468.941 320.529 469.418 322.779 470.391 324.829C471.364 326.878 472.805 328.671 474.599 330.06C478.299 333.06 483.199 334.56 489.299 334.56C494.499 334.56 499.599 332.66 504.699 328.86C509.799 325.06 514.299 319.56 518.299 312.46C522.299 305.36 525.099 296.86 526.999 287.16C527.872 283.015 528.341 278.796 528.399 274.56C528.399 268.66 527.199 263.96 524.899 260.56C522.599 257.16 518.899 255.46 513.799 255.46C507.299 255.46 500.999 257.96 495.099 262.96C489.199 267.96 483.899 275.06 479.499 284.06C474.705 294.022 471.274 304.583 469.299 315.46L468.199 310.86C469.956 299.584 473.715 288.713 479.299 278.76C484.899 268.76 491.399 260.86 498.999 255.06C506.599 249.26 514.399 246.26 522.299 246.26C528.099 246.26 532.599 248.36 535.999 252.66C539.399 256.96 540.999 262.66 540.999 269.76C540.908 273.217 540.54 276.662 539.899 280.06C537.499 292.56 532.899 303.36 526.099 312.46C519.299 321.56 511.799 328.56 503.399 333.26C494.999 337.96 487.199 340.36 479.899 340.36C472.899 340.06 467.599 338.56 463.499 335.66Z" fill="#37302D"/>
<path d="M540.8 336.86C539.6 335.36 539 332.86 539 329.36C539.212 325.126 539.747 320.913 540.6 316.76L563.7 194C564 191.9 564.2 190.5 564.2 189.9C564.2 186.1 562.6 184.2 559.4 184.2C556.7 184.2 552.9 185.4 548 187.9H547.5C546.9 187.9 546.5 187.5 546.2 186.8C545.9 186.1 546.2 185.6 546.8 185.4L574.9 171.7H575.4C575.701 171.697 575.999 171.758 576.275 171.879C576.551 171.999 576.798 172.177 577 172.4C577.5 172.9 577.6 173.2 577.5 173.5L550.8 316.9C550.349 319.077 550.048 321.282 549.9 323.5C549.808 325.401 550.296 327.284 551.3 328.9C551.658 329.48 552.158 329.96 552.753 330.292C553.348 330.625 554.018 330.8 554.7 330.8C558 330.8 568.2 322.6 575.3 315.1C575.524 314.824 575.847 314.645 576.2 314.6C576.7 314.6 577 314.9 577.3 315.4C577.439 315.637 577.494 315.913 577.458 316.185C577.422 316.456 577.296 316.708 577.1 316.9C571.8 323 562.2 332 558.2 334.9C554.2 337.8 550.3 339.2 546.7 339.2C544 339.16 542.1 338.36 540.8 336.86Z" fill="#37302D"/>
<path d="M581.9 330.66C577 324.56 574.6 316.66 574.6 306.96C574.667 302.905 575.034 298.86 575.7 294.86C577.336 286.692 580.6 278.938 585.3 272.06C590.157 264.621 596.487 258.256 603.9 253.36C610.724 248.65 618.808 246.107 627.1 246.06C631.8 246.06 635.5 246.96 638.1 248.66C639.321 249.416 640.323 250.478 641.007 251.741C641.691 253.004 642.033 254.424 642 255.86C642.004 256.697 641.937 257.533 641.8 258.36C640.7 262.96 637.4 267.26 631.9 271.46C625.454 276.107 618.339 279.748 610.8 282.26C601.995 285.342 592.871 287.422 583.6 288.46L584.1 285.46C596.4 283.76 606.5 281.06 614.5 277.26C622.5 273.46 627.1 268.76 628.7 263.06C629.06 262.032 629.23 260.948 629.2 259.86C629.277 258.651 628.996 257.446 628.391 256.396C627.786 255.346 626.884 254.499 625.8 253.96C623.254 252.7 620.439 252.082 617.6 252.16C609.7 252.16 603.2 255.46 598.1 262.06C593 268.66 589.6 277.06 587.9 287.26C587.004 291.772 586.535 296.359 586.5 300.96C586.5 310.56 588.7 318.16 593 323.86C597.3 329.56 603.4 332.46 611.1 332.46C619.541 332.585 627.792 329.952 634.6 324.96H635.1C635.357 324.961 635.61 325.025 635.837 325.147C636.064 325.269 636.257 325.445 636.4 325.66C636.8 326.16 636.7 326.56 636.3 327.06C625.5 335.56 614.6 339.86 603.7 339.86C593.9 339.86 586.8 336.76 581.9 330.66Z" fill="#37302D"/>
<path d="M649.301 338.56C649.063 338.512 648.848 338.389 648.686 338.209C648.524 338.029 648.424 337.801 648.401 337.56L649.301 332.76C649.601 331.66 650.001 329.86 650.601 327.26C651.201 324.66 651.501 322.36 651.901 320.16L661.301 269.26C661.734 267.153 661.969 265.011 662.001 262.86C662.001 257.86 660.501 255.36 657.401 255.36C654.655 255.494 651.98 256.283 649.601 257.66C646.501 259.36 639.501 264.26 636.301 267.76C636.207 267.844 636.095 267.905 635.974 267.94C635.852 267.974 635.725 267.981 635.601 267.96C635.277 267.922 634.965 267.813 634.688 267.64C634.411 267.467 634.177 267.235 634.001 266.96C633.601 266.46 635.001 265.56 635.401 265.26C646.301 254.26 657.901 246.96 665.401 246.96C667.801 246.96 669.601 247.66 670.601 249.16C671.601 250.66 672.201 252.96 672.201 256.36C672.063 260.722 671.595 265.068 670.801 269.36L659.201 335.76C659.076 336.247 658.852 336.703 658.542 337.099C658.232 337.495 657.844 337.822 657.401 338.06C656.134 338.706 654.722 339.016 653.301 338.96C651.954 339.068 650.599 338.933 649.301 338.56ZM705.401 336.96C704.301 335.56 703.801 333.06 703.801 329.56C703.95 325.265 704.418 320.986 705.201 316.76L711.801 280.46C712.827 276.202 713.364 271.84 713.401 267.46C713.401 258.36 709.901 253.76 702.901 253.76C697.701 253.76 692.401 257.06 686.801 263.56C681.201 270.06 676.001 279.56 671.001 292C666.001 304.44 662.101 319 659.001 335.7L656.501 335.5C659.107 319.568 663.363 303.951 669.201 288.9C674.601 275.4 680.801 264.8 687.701 257.3C694.601 249.8 701.801 246 709.301 246C714.301 246 718.001 247.3 720.401 250C722.801 252.7 723.901 256.8 723.901 262.4C723.744 267.003 723.209 271.585 722.301 276.1L714.801 316.7C714.359 318.738 714.124 320.815 714.101 322.9C714.101 328.1 715.701 330.7 718.901 330.7C722.201 330.7 727.501 327 734.701 319.5C735.001 319.2 735.201 319 735.401 319C735.665 319.023 735.92 319.107 736.146 319.246C736.371 319.385 736.561 319.575 736.701 319.8C736.88 320.015 736.969 320.291 736.951 320.57C736.932 320.849 736.807 321.111 736.601 321.3C732.442 326.298 727.747 330.825 722.601 334.8C718.601 337.7 714.701 339.1 711.101 339.1C708.301 339.16 706.501 338.46 705.401 337V336.96Z" fill="#37302D"/>
<path d="M739.1 334.66C735.7 331.06 734 325.46 734 317.86C733.993 314.639 734.294 311.424 734.9 308.26C736.87 297.235 741.055 286.723 747.2 277.36C752.999 268.284 760.628 260.518 769.6 254.56C778.3 248.86 787 245.96 795.9 245.96C800.177 245.883 804.36 247.219 807.8 249.76C811.1 252.26 813.1 256.16 813.7 261.26L804.6 280.86C797.1 298.954 788.867 313.334 779.9 324C770.9 334.7 761.7 340 752.3 340C749.844 340.123 747.39 339.71 745.111 338.787C742.831 337.865 740.78 336.457 739.1 334.66ZM779.5 318.46C786.589 310.345 792.359 301.166 796.6 291.26C801.1 280.96 803.3 272.96 803.3 267.16C803.3 262.76 802.1 259.36 799.6 256.86C797.1 254.36 793.7 253.16 789.3 253.16C778.6 253.16 769.3 257.26 761.3 265.36C753.3 273.46 748 285 745.4 299.76C744.803 303.228 744.502 306.741 744.5 310.26C744.5 316.76 745.7 321.76 748.2 325.06C749.37 326.68 750.923 327.984 752.721 328.857C754.518 329.729 756.504 330.143 758.5 330.06C765.6 330.26 772.6 326.36 779.5 318.46ZM794.8 337C793.7 335.6 793.1 333.2 793.1 329.8C793.188 325.424 793.725 321.068 794.7 316.8L818 194C818.255 192.713 818.422 191.41 818.5 190.1C818.5 186.1 816.7 184.2 813.2 184.2C810.3 184.2 806.4 185.4 801.6 187.9H801.1C800.6 187.9 800.3 187.5 800.1 186.8C799.9 186.1 800.1 185.6 800.7 185.4L828.8 171.7H829.3C829.57 171.71 829.835 171.778 830.076 171.898C830.317 172.019 830.53 172.19 830.7 172.4C831.2 172.9 831.3 173.2 831.2 173.5L804.5 316.9C804.052 319.004 803.817 321.149 803.8 323.3C803.8 328.3 805.4 330.8 808.6 330.8C811.6 330.8 816.9 327.1 824.4 319.6C824.7 319.3 824.9 319.1 825.1 319.1C825.364 319.123 825.619 319.207 825.845 319.346C826.071 319.485 826.261 319.675 826.4 319.9C826.579 320.115 826.669 320.391 826.65 320.67C826.631 320.949 826.506 321.211 826.3 321.4C820.8 327.5 816.1 332 812.1 334.9C808.1 337.8 804.3 339.2 800.7 339.2C797.8 339.16 795.9 338.46 794.8 337Z" fill="#37302D"/>
<path d="M376.4 104.76C403.683 104.76 425.8 82.6428 425.8 55.36C425.8 28.0771 403.683 5.95996 376.4 5.95996C349.117 5.95996 327 28.0771 327 55.36C327 82.6428 349.117 104.76 376.4 104.76Z" fill="#37302D"/>
<path d="M419.3 86.5602C436.531 86.5602 450.5 72.5914 450.5 55.3601C450.5 38.1289 436.531 24.1602 419.3 24.1602C402.068 24.1602 388.1 38.1289 388.1 55.3601C388.1 72.5914 402.068 86.5602 419.3 86.5602Z" fill="#37302D"/>
<path d="M496.001 71.5602C504.948 71.5602 512.201 64.3072 512.201 55.3601C512.201 46.4131 504.948 39.1602 496.001 39.1602C487.054 39.1602 479.801 46.4131 479.801 55.3601C479.801 64.3072 487.054 71.5602 496.001 71.5602Z" fill="#37302D"/>
</svg>
